<?xml version="1.0" encoding="UTF-8" standalone="no"?>
<!DOCTYPE svg PUBLIC "-//W3C//DTD SVG 1.1//EN"
 "http://www.w3.org/Graphics/SVG/1.1/DTD/svg11.dtd">
<!-- Generated by graphviz version 12.2.1 (20241206.2353)
 -->
<!-- Title: pda_machine Pages: 1 -->
<svg width="142pt" height="112pt"
 viewBox="0.00 0.00 142.01 112.26" xmlns="http://www.w3.org/2000/svg" xmlns:xlink="http://www.w3.org/1999/xlink">
<g id="graph0" class="graph" transform="scale(1 1) rotate(0) translate(4 108.26)">
<title>pda_machine</title>
<polygon fill="white" stroke="none" points="-4,4 -4,-108.26 138.01,-108.26 138.01,4 -4,4"/>
<!--   -->
<g id="node1" class="node">
<title> </title>
<text text-anchor="middle" x="27" y="-15.08" font-family="Times New Roman,serif" font-size="14.00"> </text>
</g>
<!-- q0 -->
<g id="node2" class="node">
<title>q0</title>
<ellipse fill="none" stroke="black" cx="113.88" cy="-20.13" rx="20.13" ry="20.13"/>
<text text-anchor="middle" x="113.88" y="-15.08" font-family="Times New Roman,serif" font-size="14.00">q0</text>
</g>
<!--  &#45;&gt;q0 -->
<g id="edge1" class="edge">
<title> &#45;&gt;q0</title>
<path fill="none" stroke="black" d="M53.93,-20.13C62.74,-20.13 72.68,-20.13 81.85,-20.13"/>
<polygon fill="black" stroke="black" points="81.79,-23.63 91.79,-20.13 81.79,-16.63 81.79,-23.63"/>
<text text-anchor="middle" x="73.88" y="-23.33" font-family="Times New Roman,serif" font-size="14.00"> </text>
</g>
<!-- q0&#45;&gt;q0 -->
<g id="edge2" class="edge">
<title>q0&#45;&gt;q0</title>
<path fill="none" stroke="black" d="M106.64,-39.36C105.53,-49.3 107.94,-58.26 113.88,-58.26 117.31,-58.26 119.57,-55.27 120.65,-50.82"/>
<polygon fill="black" stroke="black" points="124.14,-51.01 121.06,-40.87 117.15,-50.72 124.14,-51.01"/>
<text text-anchor="middle" x="113.88" y="-61.46" font-family="Times New Roman,serif" font-size="14.00">a,Z,AZ</text>
</g>
<!-- q1 -->
<g id="node3" class="node">
<title>q1</title>
<ellipse fill="none" stroke="black" cx="27" cy="-80.13" rx="20.13" ry="20.13"/>
<ellipse fill="none" stroke="black" cx="27" cy="-80.13" rx="24.13" ry="24.13"/>
<text text-anchor="middle" x="27" y="-75.08" font-family="Times New Roman,serif" font-size="14.00">q1</text>
</g>
</g>
</svg>
