<?xml version="1.0" encoding="UTF-8" standalone="no"?>
<!DOCTYPE svg PUBLIC "-//W3C//DTD SVG 1.1//EN"
 "http://www.w3.org/Graphics/SVG/1.1/DTD/svg11.dtd">
<!-- Generated by graphviz version 12.2.1 (20241206.2353)
 -->
<!-- Title: pda_machine Pages: 1 -->
<svg width="253pt" height="56pt"
 viewBox="0.00 0.00 252.52 56.26" xmlns="http://www.w3.org/2000/svg" xmlns:xlink="http://www.w3.org/1999/xlink">
<g id="graph0" class="graph" transform="scale(1 1) rotate(0) translate(4 52.26)">
<title>pda_machine</title>
<polygon fill="white" stroke="none" points="-4,4 -4,-52.26 248.52,-52.26 248.52,4 -4,4"/>
<!--   -->
<g id="node1" class="node">
<title> </title>
<text text-anchor="middle" x="27" y="-19.08" font-family="Times New Roman,serif" font-size="14.00"> </text>
</g>
<!-- q0 -->
<g id="node2" class="node">
<title>q0</title>
<ellipse fill="none" stroke="black" cx="113.88" cy="-24.13" rx="20.13" ry="20.13"/>
<text text-anchor="middle" x="113.88" y="-19.08" font-family="Times New Roman,serif" font-size="14.00">q0</text>
</g>
<!--  &#45;&gt;q0 -->
<g id="edge1" class="edge">
<title> &#45;&gt;q0</title>
<path fill="none" stroke="black" d="M53.93,-24.13C62.74,-24.13 72.68,-24.13 81.85,-24.13"/>
<polygon fill="black" stroke="black" points="81.79,-27.63 91.79,-24.13 81.79,-20.63 81.79,-27.63"/>
<text text-anchor="middle" x="73.88" y="-27.33" font-family="Times New Roman,serif" font-size="14.00"> </text>
</g>
<!-- q1 -->
<g id="node3" class="node">
<title>q1</title>
<ellipse fill="none" stroke="black" cx="220.39" cy="-24.13" rx="20.13" ry="20.13"/>
<ellipse fill="none" stroke="black" cx="220.39" cy="-24.13" rx="24.13" ry="24.13"/>
<text text-anchor="middle" x="220.39" y="-19.08" font-family="Times New Roman,serif" font-size="14.00">q1</text>
</g>
<!-- q0&#45;&gt;q1 -->
<g id="edge2" class="edge">
<title>q0&#45;&gt;q1</title>
<path fill="none" stroke="black" d="M134.05,-24.13C148.22,-24.13 167.91,-24.13 184.81,-24.13"/>
<polygon fill="black" stroke="black" points="184.44,-27.63 194.44,-24.13 184.44,-20.63 184.44,-27.63"/>
<text text-anchor="middle" x="165.14" y="-27.33" font-family="Times New Roman,serif" font-size="14.00">a,z,λ</text>
</g>
</g>
</svg>
