<?xml version="1.0" encoding="UTF-8" standalone="no"?>
<!DOCTYPE svg PUBLIC "-//W3C//DTD SVG 1.1//EN"
 "http://www.w3.org/Graphics/SVG/1.1/DTD/svg11.dtd">
<!-- Generated by graphviz version 12.2.1 (20241206.2353)
 -->
<!-- Title: pda_machine Pages: 1 -->
<svg width="366pt" height="121pt"
 viewBox="0.00 0.00 366.29 121.26" xmlns="http://www.w3.org/2000/svg" xmlns:xlink="http://www.w3.org/1999/xlink">
<g id="graph0" class="graph" transform="scale(1 1) rotate(0) translate(4 117.26)">
<title>pda_machine</title>
<polygon fill="white" stroke="none" points="-4,4 -4,-117.26 362.29,-117.26 362.29,4 -4,4"/>
<!--   -->
<g id="node1" class="node">
<title> </title>
<text text-anchor="middle" x="27" y="-19.08" font-family="Times New Roman,serif" font-size="14.00"> </text>
</g>
<!-- q0 -->
<g id="node2" class="node">
<title>q0</title>
<ellipse fill="none" stroke="black" cx="113.88" cy="-24.13" rx="20.13" ry="20.13"/>
<text text-anchor="middle" x="113.88" y="-19.08" font-family="Times New Roman,serif" font-size="14.00">q0</text>
</g>
<!--  &#45;&gt;q0 -->
<g id="edge1" class="edge">
<title> &#45;&gt;q0</title>
<path fill="none" stroke="black" d="M53.93,-24.13C62.74,-24.13 72.68,-24.13 81.85,-24.13"/>
<polygon fill="black" stroke="black" points="81.79,-27.63 91.79,-24.13 81.79,-20.63 81.79,-27.63"/>
<text text-anchor="middle" x="73.88" y="-27.33" font-family="Times New Roman,serif" font-size="14.00"> </text>
</g>
<!-- q0&#45;&gt;q0 -->
<g id="edge2" class="edge">
<title>q0&#45;&gt;q0</title>
<path fill="none" stroke="black" d="M110.22,-44.14C109.77,-53.77 110.99,-62.26 113.88,-62.26 115.51,-62.26 116.6,-59.57 117.17,-55.51"/>
<polygon fill="black" stroke="black" points="120.67,-55.76 117.49,-45.65 113.67,-55.54 120.67,-55.76"/>
<text text-anchor="middle" x="113.88" y="-65.46" font-family="Times New Roman,serif" font-size="14.00">a,z,0z</text>
</g>
<!-- q0&#45;&gt;q0 -->
<g id="edge3" class="edge">
<title>q0&#45;&gt;q0</title>
<path fill="none" stroke="black" d="M107.72,-43.69C104.72,-61.35 106.77,-80.26 113.88,-80.26 119.49,-80.26 121.95,-68.49 121.27,-54.84"/>
<polygon fill="black" stroke="black" points="124.78,-54.75 120.21,-45.2 117.82,-55.52 124.78,-54.75"/>
<text text-anchor="middle" x="113.88" y="-83.46" font-family="Times New Roman,serif" font-size="14.00">a,a,00</text>
</g>
<!-- q1 -->
<g id="node4" class="node">
<title>q1</title>
<ellipse fill="none" stroke="black" cx="217.89" cy="-24.13" rx="20.13" ry="20.13"/>
<text text-anchor="middle" x="217.89" y="-19.08" font-family="Times New Roman,serif" font-size="14.00">q1</text>
</g>
<!-- q0&#45;&gt;q1 -->
<g id="edge4" class="edge">
<title>q0&#45;&gt;q1</title>
<path fill="none" stroke="black" d="M134.07,-24.13C148.79,-24.13 169.41,-24.13 186.39,-24.13"/>
<polygon fill="black" stroke="black" points="185.93,-27.63 195.93,-24.13 185.93,-20.63 185.93,-27.63"/>
<text text-anchor="middle" x="165.89" y="-27.33" font-family="Times New Roman,serif" font-size="14.00">b,0,λ</text>
</g>
<!-- q2 -->
<g id="node3" class="node">
<title>q2</title>
<ellipse fill="none" stroke="black" cx="334.16" cy="-24.13" rx="20.13" ry="20.13"/>
<ellipse fill="none" stroke="black" cx="334.16" cy="-24.13" rx="24.13" ry="24.13"/>
<text text-anchor="middle" x="334.16" y="-19.08" font-family="Times New Roman,serif" font-size="14.00">q2</text>
</g>
<!-- q1&#45;&gt;q2 -->
<g id="edge6" class="edge">
<title>q1&#45;&gt;q2</title>
<path fill="none" stroke="black" d="M238.28,-24.13C254.7,-24.13 278.65,-24.13 298.38,-24.13"/>
<polygon fill="black" stroke="black" points="298.21,-27.63 308.21,-24.13 298.21,-20.63 298.21,-27.63"/>
<text text-anchor="middle" x="274.02" y="-27.33" font-family="Times New Roman,serif" font-size="14.00">λ,z,Az</text>
</g>
<!-- q1&#45;&gt;q1 -->
<g id="edge5" class="edge">
<title>q1&#45;&gt;q1</title>
<path fill="none" stroke="black" d="M208.68,-42.18C206.8,-52.58 209.87,-62.26 217.89,-62.26 222.78,-62.26 225.83,-58.67 227.05,-53.5"/>
<polygon fill="black" stroke="black" points="230.54,-53.71 227.1,-43.69 223.54,-53.67 230.54,-53.71"/>
<text text-anchor="middle" x="217.89" y="-65.46" font-family="Times New Roman,serif" font-size="14.00">b,0,λ</text>
</g>
</g>
</svg>
